<svg width="33" height="48" viewBox="0 0 33 48" fill="none" xmlns="http://www.w3.org/2000/svg">
<path d="M21.7522 23.9968L1.43624 7.06793C0.625343 6.3868 0.117393 5.41209 0.0236378 4.35724C-0.070118 3.3024 0.257957 2.25338 0.936018 1.43991C1.61408 0.626447 2.58687 0.114828 3.64136 0.0170943C4.69584 -0.0806399 5.74609 0.243476 6.56211 0.918464L30.5662 20.922C31.0163 21.298 31.3784 21.7683 31.6268 22.2996C31.8752 22.8309 32.004 23.4102 32.004 23.9968C32.004 24.5833 31.8752 25.1626 31.6268 25.6939C31.3784 26.2252 31.0163 26.6955 30.5662 27.0715L6.56211 47.075C5.74645 47.7532 4.69494 48.0799 3.63855 47.9834C2.58216 47.8868 1.60729 47.3749 0.928087 46.5601C0.248888 45.7452 -0.0790977 44.6941 0.01618 43.6376C0.111462 42.5811 0.622219 41.6056 1.43624 40.9254L21.7522 23.9968Z" fill="black" fill-opacity="0.5"/>
</svg>
