<svg width="48" height="35" viewBox="0 0 48 35" fill="none" xmlns="http://www.w3.org/2000/svg">
<path d="M3.42857 6.85714H44.5714C46.464 6.85714 48 5.32114 48 3.42857C48 1.536 46.464 0 44.5714 0H3.42857C1.536 0 0 1.536 0 3.42857C0 5.32114 1.536 6.85714 3.42857 6.85714ZM44.5714 13.7143H3.42857C1.536 13.7143 0 15.2503 0 17.1429C0 19.0354 1.536 20.5714 3.42857 20.5714H44.5714C46.464 20.5714 48 19.0354 48 17.1429C48 15.2503 46.464 13.7143 44.5714 13.7143ZM44.5714 27.4286H3.42857C1.536 27.4286 0 28.9646 0 30.8571C0 32.7497 1.536 34.2857 3.42857 34.2857H44.5714C46.464 34.2857 48 32.7497 48 30.8571C48 28.9646 46.464 27.4286 44.5714 27.4286Z" fill="black"/>
</svg>
