<svg width="36" height="36" viewBox="0 0 36 36" fill="none" xmlns="http://www.w3.org/2000/svg">
<path d="M18 2.34C26.64 2.34 33.66 8.7336 33.66 16.5924C33.66 24.4512 26.64 30.8484 18 30.8484C16.5784 30.8487 15.1624 30.6722 13.7844 30.3228L12.9276 30.1068L12.1428 30.51L8.9028 32.1768V28.2384L7.9812 27.5184C4.392 24.8148 2.34 20.826 2.34 16.5924C2.34 8.7336 9.36 2.34 18 2.34ZM18 0C8.0604 0 0 7.4304 0 16.5924C0 21.7476 2.5488 26.352 6.5484 29.3976V36L13.2084 32.5872C14.7744 32.986 16.384 33.1879 18 33.1884C27.9396 33.1884 36 25.758 36 16.596C36 7.434 27.9396 0 18 0Z" fill="white"/>
<path d="M6.90842 21.6216L16.1172 11.7432L20.7936 16.452L29.0916 11.916L19.8468 22.0068L15.3108 17.0496L6.90842 21.6216Z" fill="white"/>
</svg>
