<svg width="35" height="35" viewBox="0 0 35 35" fill="none" xmlns="http://www.w3.org/2000/svg">
<path d="M33.4091 31.8182H31.8182V11.1364C31.8182 10.7144 31.6506 10.3098 31.3522 10.0114C31.0539 9.71307 30.6492 9.54545 30.2273 9.54545H25.4545C25.0326 9.54545 24.628 9.71307 24.3296 10.0114C24.0312 10.3098 23.8636 10.7144 23.8636 11.1364V31.8182H22.2727V4.77273C22.2727 4.35079 22.1051 3.94614 21.8068 3.64778C21.5084 3.34943 21.1038 3.18182 20.6818 3.18182H15.9091C15.4872 3.18182 15.0825 3.34943 14.7841 3.64778C14.4858 3.94614 14.3182 4.35079 14.3182 4.77273V31.8182H12.7273V17.5C12.7273 17.0781 12.5597 16.6734 12.2613 16.3751C11.963 16.0767 11.5583 15.9091 11.1364 15.9091H6.36364C5.9417 15.9091 5.53705 16.0767 5.23869 16.3751C4.94034 16.6734 4.77273 17.0781 4.77273 17.5V31.8182H3.18182V1.59091C3.18182 1.16897 3.01421 0.76432 2.71585 0.465966C2.4175 0.167613 2.01284 0 1.59091 0C1.16897 0 0.76432 0.167613 0.465966 0.465966C0.167613 0.76432 0 1.16897 0 1.59091V33.4091C0 33.831 0.167613 34.2357 0.465966 34.534C0.76432 34.8324 1.16897 35 1.59091 35H33.4091C33.831 35 34.2357 34.8324 34.534 34.534C34.8324 34.2357 35 33.831 35 33.4091C35 32.9872 34.8324 32.5825 34.534 32.2841C34.2357 31.9858 33.831 31.8182 33.4091 31.8182ZM7.95455 31.8182V19.0909H9.54545V31.8182H7.95455ZM17.5 31.8182V6.36364H19.0909V31.8182H17.5ZM27.0455 31.8182V12.7273H28.6364V31.8182H27.0455Z" fill="black"/>
</svg>
